<?xml version="1.0" encoding="UTF-8"?>
<svg xmlns="http://www.w3.org/2000/svg" viewBox="0 0 400 400">
  <!-- Background gradient -->
  <defs>
    <linearGradient id="bgGradient" x1="0%" y1="0%" x2="100%" y2="100%">
      <stop offset="0%" stop-color="#0B0B13" />
      <stop offset="100%" stop-color="#1A1A2E" />
    </linearGradient>
    
    <linearGradient id="glowGradient" x1="0%" y1="0%" x2="100%" y2="100%">
      <stop offset="0%" stop-color="#8A2BE2" />
      <stop offset="100%" stop-color="#4169E1" />
    </linearGradient>
    
    <filter id="glow" x="-20%" y="-20%" width="140%" height="140%">
      <feGaussianBlur stdDeviation="5" result="blur" />
      <feComposite in="SourceGraphic" in2="blur" operator="over" />
    </filter>
  </defs>
  <!-- Main circular background -->
  <circle cx="200" cy="200" r="200" fill="url(#bgGradient)" />
  
  <!-- Circuit board patterns -->
  <g stroke="#2A3A65" stroke-width="1.5" opacity="0.3">
    <!-- Circular grid lines -->
    <circle cx="200" cy="200" r="150" fill="none" />
    <circle cx="200" cy="200" r="120" fill="none" />
    <circle cx="200" cy="200" r="90" fill="none" />
    
    <!-- Radial lines -->
    <line x1="200" y1="50" x2="200" y2="350" stroke="#2A3A65" />
    <line x1="50" y1="200" x2="350" y2="200" stroke="#2A3A65" />
    <line x1="86" y1="86" x2="314" y2="314" stroke="#2A3A65" />
    <line x1="86" y1="314" x2="314" y2="86" stroke="#2A3A65" />
    
    <!-- Circuit nodes -->
    <circle cx="200" cy="50" r="5" fill="#4169E1" />
    <circle cx="200" cy="350" r="5" fill="#8A2BE2" />
    <circle cx="50" cy="200" r="5" fill="#4169E1" />
    <circle cx="350" cy="200" r="5" fill="#8A2BE2" />
    <circle cx="86" cy="86" r="5" fill="#4169E1" />
    <circle cx="314" cy="314" r="5" fill="#8A2BE2" />
    <circle cx="86" cy="314" r="5" fill="#4169E1" />
    <circle cx="314" cy="86" r="5" fill="#8A2BE2" />
  </g>
  
  <!-- Central symbol - RV coin with AI wave pattern -->
  <g filter="url(#glow)">
    <circle cx="200" cy="200" r="85" fill="#131326" stroke="url(#glowGradient)" stroke-width="4" />
    
    <!-- FIXED: Perfectly symmetrical AI wave pattern inside coin -->
    <!-- Each side is now a mirror image of the other -->
    <path d="M 135,170 Q 155,140 175,170 Q 200,200 225,170 Q 245,140 265,170" 
          stroke="#8A2BE2" stroke-width="4" fill="none" stroke-linecap="round" />
    <path d="M 135,180 Q 155,150 175,180 Q 200,210 225,180 Q 245,150 265,180" 
          stroke="#4169E1" stroke-width="3" fill="none" stroke-linecap="round" />
    
    <!-- ReVibe text -->
    <text x="200" y="230" font-family="Arial, sans-serif" font-weight="bold" font-size="30" 
          fill="white" text-anchor="middle">ReVibe</text>
  </g>
</svg> 